<svg xmlns="http://www.w3.org/2000/svg" width="1200" height="360" viewBox="0 0 1200 360" role="img" aria-labelledby="legion-core-title legion-core-desc">
  <title id="legion-core-title">Legion Core</title>
  <desc id="legion-core-desc">Legion Core, model-agnostic orchestration for agent systems.</desc>
  <defs>
    <linearGradient id="surface" x1="0" y1="0" x2="1" y2="1">
      <stop offset="0%" stop-color="#0E0E14"/>
      <stop offset="56%" stop-color="#07080C"/>
      <stop offset="100%" stop-color="#050509"/>
    </linearGradient>
    <linearGradient id="core-face" x1="0" y1="0" x2="0" y2="1">
      <stop offset="0%" stop-color="#15151D"/>
      <stop offset="100%" stop-color="#090A10"/>
    </linearGradient>
    <linearGradient id="core-edge" x1="68" y1="58" x2="336" y2="302" gradientUnits="userSpaceOnUse">
      <stop offset="0%" stop-color="#F6BB4E"/>
      <stop offset="48%" stop-color="#7E6CFF"/>
      <stop offset="100%" stop-color="#F0E8D6"/>
    </linearGradient>
    <pattern id="field" width="48" height="48" patternUnits="userSpaceOnUse">
      <path d="M48 0H0V48" fill="none" stroke="#F0E8D6" stroke-opacity="0.026" stroke-width="1"/>
    </pattern>
    <clipPath id="frame">
      <rect width="1200" height="360" rx="28"/>
    </clipPath>
  </defs>

  <g clip-path="url(#frame)">
    <rect width="1200" height="360" fill="url(#surface)"/>
    <rect width="1200" height="360" fill="url(#field)"/>
    <path d="M54 300H1146" stroke="#F0E8D6" stroke-opacity="0.07"/>
    <path d="M54 62H1146" stroke="#F0E8D6" stroke-opacity="0.06"/>

    <g transform="translate(64 58)">
      <rect x="0" y="0" width="284" height="244" rx="18" fill="#08090E" stroke="#F0E8D6" stroke-opacity="0.10"/>
      <rect x="24" y="24" width="236" height="196" rx="10" fill="url(#core-face)" stroke="url(#core-edge)" stroke-opacity="0.68"/>

      <g fill="none" stroke-linecap="square" stroke-width="2">
        <path d="M-10 62H58V88H104" stroke="#F6BB4E" stroke-opacity="0.68"/>
        <path d="M-10 102H84V116H104" stroke="#F0E8D6" stroke-opacity="0.30"/>
        <path d="M-10 142H104" stroke="#7E6CFF" stroke-opacity="0.64"/>
        <path d="M-10 182H84V168H104" stroke="#F0E8D6" stroke-opacity="0.30"/>
        <path d="M-10 222H58V196H104" stroke="#F0E8D6" stroke-opacity="0.30"/>

        <path d="M180 88H226V62H294" stroke="#F0E8D6" stroke-opacity="0.30"/>
        <path d="M180 116H294" stroke="#F0E8D6" stroke-opacity="0.30"/>
        <path d="M180 142H294" stroke="#F6BB4E" stroke-opacity="0.68"/>
        <path d="M180 168H226V182H294" stroke="#7E6CFF" stroke-opacity="0.64"/>
        <path d="M180 196H226V222H294" stroke="#F0E8D6" stroke-opacity="0.30"/>
      </g>

      <g fill="#08090E" stroke-width="2">
        <circle cx="58" cy="88" r="4" stroke="#F6BB4E"/>
        <circle cx="104" cy="142" r="4" stroke="#7E6CFF"/>
        <circle cx="226" cy="182" r="4" stroke="#7E6CFF"/>
        <circle cx="226" cy="142" r="4" stroke="#F6BB4E"/>
      </g>

      <rect x="104" y="70" width="76" height="144" rx="6" fill="#0C0D13" stroke="#F0E8D6" stroke-opacity="0.20"/>
      <path d="M142 84V200" stroke="#F0E8D6" stroke-opacity="0.20"/>
      <path d="M118 100H166M118 122H166M118 144H166M118 166H166M118 188H166" stroke="#F0E8D6" stroke-opacity="0.13"/>
      <rect x="124" y="111" width="36" height="10" fill="#F6BB4E" fill-opacity="0.80"/>
      <rect x="124" y="137" width="36" height="10" fill="#7E6CFF" fill-opacity="0.86"/>
      <rect x="124" y="163" width="36" height="10" fill="#F0E8D6" fill-opacity="0.55"/>

      <g font-family="'SFMono-Regular', 'Menlo', 'Consolas', monospace" font-size="10" letter-spacing="1.4" fill="#918C9E">
        <text x="36" y="44">INPUTS</text>
        <text x="190" y="44">OUTPUTS</text>
        <text x="96" y="236" fill="#F0E8D6" fill-opacity="0.62">ONE CONTROL PLANE</text>
      </g>
    </g>

    <g transform="translate(416 88)" font-family="'Helvetica Neue', Arial, sans-serif">
      <text x="0" y="76" font-size="78" font-weight="900" letter-spacing="2.2" fill="#F0E8D6">LEGION CORE</text>
      <text x="2" y="122" font-size="24" font-weight="600" letter-spacing="0.3" fill="#BDB6CB">model-agnostic orchestration for agent systems</text>
      <path d="M2 154H622" stroke="#F0E8D6" stroke-opacity="0.12"/>

      <g transform="translate(2 196)" font-family="'SFMono-Regular', 'Menlo', 'Consolas', monospace" font-size="14" letter-spacing="1.5">
        <text x="0" y="0" fill="#F6BB4E">ROUTER</text>
        <path d="M82 -15V6" stroke="#F0E8D6" stroke-opacity="0.14"/>
        <text x="108" y="0" fill="#F0E8D6">ORCHESTRATE</text>
        <path d="M254 -15V6" stroke="#F0E8D6" stroke-opacity="0.14"/>
        <text x="280" y="0" fill="#7E6CFF">OBSERVABILITY</text>
        <path d="M460 -15V6" stroke="#F0E8D6" stroke-opacity="0.14"/>
        <text x="486" y="0" fill="#F0E8D6">SETUP</text>
      </g>

      <g transform="translate(2 238)" font-family="'SFMono-Regular', 'Menlo', 'Consolas', monospace" font-size="12" letter-spacing="1.2" fill="#F0E8D6" fill-opacity="0.48">
        <text x="0" y="0">route work</text>
        <text x="118" y="0">delegate in isolation</text>
        <text x="322" y="0">trace every run</text>
        <text x="486" y="0">learn, heal, repeat</text>
      </g>
    </g>

    <g transform="translate(1024 48)" font-family="'SFMono-Regular', 'Menlo', 'Consolas', monospace" font-size="10" letter-spacing="1.6" fill="#F0E8D6" fill-opacity="0.42">
      <text x="0" y="0">LEGION.SPAN.V1</text>
      <text x="0" y="22">FIXED CORE</text>
      <text x="0" y="44">MANY AGENTS</text>
      <text x="0" y="66">ONE LINE</text>
    </g>

    <rect x="1" y="1" width="1198" height="358" rx="27" fill="none" stroke="#F0E8D6" stroke-opacity="0.08"/>
  </g>
</svg>
